HIERARCHY
ROOT Hips
{
	OFFSET 0.000000 0.000000 0.000000
	CHANNELS 6 Xposition Yposition Zposition Xrotation Yrotation Zrotation
	JOINT LeftUpLeg_virtual
	{
		OFFSET 0.000000 0.000000 0.000000
		CHANNELS 3 Xrotation Yrotation Zrotation
		JOINT LeftUpLeg
		{
			OFFSET 11.394100 -6.187798 -0.413800
			CHANNELS 3 Xrotation Yrotation Zrotation
			JOINT LeftLeg
			{
				OFFSET 0.430247 -32.302673 3.732800
				CHANNELS 3 Xrotation Yrotation Zrotation
				JOINT LeftFoot
				{
					OFFSET -0.430247 -48.264931 -6.423300
					CHANNELS 3 Xrotation Yrotation Zrotation
					JOINT LeftToeBase
					{
						OFFSET 4.230900 -16.068199 23.438400
						CHANNELS 3 Xrotation Yrotation Zrotation
						JOINT LeftToe_End
						{
							OFFSET 4.510700 0.695400 19.974600
							CHANNELS 3 Xrotation Yrotation Zrotation
							End Site
							{
								OFFSET 0 0 0
							}
						}
					}
				}
			}
		}
	}
	JOINT RightUpLeg_virtual
	{
		OFFSET 0.000000 0.000000 0.000000
		CHANNELS 3 Xrotation Yrotation Zrotation
		JOINT RightUpLeg
		{
			OFFSET -11.333700 -6.187798 -0.413800
			CHANNELS 3 Xrotation Yrotation Zrotation
			JOINT RightLeg
			{
				OFFSET -0.430392 -32.302628 3.733000
				CHANNELS 3 Xrotation Yrotation Zrotation
				JOINT RightFoot
				{
					OFFSET 0.430392 -48.264973 -6.423500
					CHANNELS 3 Xrotation Yrotation Zrotation
					JOINT RightToeBase
					{
						OFFSET -4.230900 -16.068199 23.438400
						CHANNELS 3 Xrotation Yrotation Zrotation
						JOINT RightToe_End
						{
							OFFSET -4.510700 0.695400 19.974600
							CHANNELS 3 Xrotation Yrotation Zrotation
							End Site
							{
								OFFSET 0 0 0
							}
						}
					}
				}
			}
		}
	}
	JOINT Spine_virtual
	{
		OFFSET 0.000000 0.000000 0.000000
		CHANNELS 3 Xrotation Yrotation Zrotation
		JOINT Spine
		{
			OFFSET -0.002400 12.777504 0.315300
			CHANNELS 3 Xrotation Yrotation Zrotation
			JOINT Spine1
			{
				OFFSET -0.002067 5.816869 0.032633
				CHANNELS 3 Xrotation Yrotation Zrotation
				JOINT Spine1_split
				{
					OFFSET -0.002067 5.816869 0.032633
					CHANNELS 3 Xrotation Yrotation Zrotation
					JOINT Spine2
					{
						OFFSET -0.002067 5.816869 0.032633
						CHANNELS 3 Xrotation Yrotation Zrotation
						JOINT Neck_virtual
						{
							OFFSET 0.000000 0.000000 0.000000
							CHANNELS 3 Xrotation Yrotation Zrotation
							JOINT Neck
							{
								OFFSET -0.003700 21.199493 -0.826900
								CHANNELS 3 Xrotation Yrotation Zrotation
								JOINT Head
								{
									OFFSET 0.000000 20.442200 4.834800
									CHANNELS 3 Xrotation Yrotation Zrotation
									JOINT HeadTop_End
									{
										OFFSET 0.000000 34.668396 4.968400
										CHANNELS 3 Xrotation Yrotation Zrotation
										End Site
										{
											OFFSET 0 0 0
										}
									}
								}
							}
						}
						JOINT LeftShoulder_virtual
						{
							OFFSET 0.000000 0.000000 0.000000
							CHANNELS 3 Xrotation Yrotation Zrotation
							JOINT LeftShoulder
							{
								OFFSET 3.288150 8.794197 -1.372250
								CHANNELS 3 Xrotation Yrotation Zrotation
								JOINT LeftShoulder_split
								{
									OFFSET 3.288150 8.794197 -1.372250
									CHANNELS 3 Xrotation Yrotation Zrotation
									JOINT LeftArm
									{
										OFFSET 11.953299 -2.279007 -0.146200
										CHANNELS 3 Xrotation Yrotation Zrotation
										JOINT LeftForeArm
										{
											OFFSET 18.448900 0.000000 0.000000
											CHANNELS 3 Xrotation Yrotation Zrotation
											JOINT LeftHand
											{
												OFFSET 29.527798 0.000000 0.000000
												CHANNELS 3 Xrotation Yrotation Zrotation
												End Site
												{
													OFFSET 0 0 0
												}
											}
										}
									}
								}
							}
						}
						JOINT RightShoulder_virtual
						{
							OFFSET 0.000000 0.000000 0.000000
							CHANNELS 3 Xrotation Yrotation Zrotation
							JOINT RightShoulder
							{
								OFFSET -3.249400 8.794197 -1.372250
								CHANNELS 3 Xrotation Yrotation Zrotation
								JOINT RightShoulder_split
								{
									OFFSET -3.249400 8.794197 -1.372250
									CHANNELS 3 Xrotation Yrotation Zrotation
									JOINT RightArm
									{
										OFFSET -11.953299 -2.279007 -0.146200
										CHANNELS 3 Xrotation Yrotation Zrotation
										JOINT RightForeArm
										{
											OFFSET -18.448900 0.000000 0.000000
											CHANNELS 3 Xrotation Yrotation Zrotation
											JOINT RightHand
											{
												OFFSET -29.527802 0.000000 0.000000
												CHANNELS 3 Xrotation Yrotation Zrotation
												End Site
												{
													OFFSET 0 0 0
												}
											}
										}
									}
								}
							}
						}
					}
				}
			}
		}
	}
}
MOTION
Frames: 11
Frame Time: 0.03333333
0.014866 96.903694 -0.891594 0.000000 0.000000 0.000000 -24.512379 -2.415830 -1.628418 0.555684 19.300332 11.627965 33.981912 5.256263 -9.692096 -14.315995 29.927676 7.377333 0.271552 0.026018 -0.826436 0.000000 0.000000 0.000000 -24.512379 -2.415830 -1.628418 14.845211 -14.646417 -4.000225 31.055323 -10.117376 0.361167 -18.060332 -28.382503 1.744932 0.793732 -0.006583 1.002156 0.000000 0.000000 0.000000 -24.512379 -2.415830 -1.628418 11.188296 -4.797091 -0.721903 3.545657 -2.400647 -0.151373 0.000000 0.000000 0.000000 0.000000 0.000000 0.000000 3.557022 -2.388380 -0.108336 1.551790 0.634301 -1.308391 -6.938528 0.762143 3.865455 0.000000 0.000000 0.000000 3.557022 -2.388380 -0.108336 0.445075 -15.488171 -11.025445 0.000000 0.000000 0.000000 -20.285392 3.054794 -36.773547 0.000074 -67.201903 0.000066 0.000000 0.000000 0.000000 3.557022 -2.388380 -0.108336 0.064833 14.691503 14.953767 0.000000 0.000000 0.000000 -12.069992 -6.923744 61.446636 0.000009 39.415447 0.000002 0.000000 0.000000 0.000000 
-0.785611 96.776421 -0.445972 0.000000 0.000000 0.000000 -24.561538 -4.284141 -2.660983 -2.813694 19.600840 14.385647 38.668904 5.445296 -9.643244 -12.953706 29.874851 6.591653 -0.225376 0.119042 -2.522866 0.000000 0.000000 0.000000 -24.561538 -4.284141 -2.660983 15.029450 -14.023800 -3.430709 31.237488 -9.799581 0.542126 -18.813070 -27.245022 1.136835 0.810956 -0.006868 1.023675 0.000000 0.000000 0.000000 -24.561538 -4.284141 -2.660983 11.201462 -4.843657 -0.565603 3.545658 -2.400646 -0.151372 0.000000 0.000000 0.000000 0.000000 0.000000 0.000000 3.557022 -2.388383 -0.108336 1.594337 0.627995 -1.252939 -6.802727 0.692379 4.007736 0.000000 0.000000 0.000000 3.557022 -2.388383 -0.108336 0.460828 -15.508023 -10.923490 0.000000 0.000000 0.000000 -20.284316 3.109528 -36.878920 0.000048 -67.192874 0.000052 0.000000 0.000000 0.000000 3.557022 -2.388383 -0.108336 0.056287 14.633621 15.032350 0.000000 0.000000 0.000000 -11.965737 -6.692803 61.317142 -0.000027 39.454058 0.000036 0.000000 0.000000 0.000000 
-1.615748 96.623184 0.016159 0.000000 0.000000 0.000000 -24.639272 -6.167423 -3.730250 -6.723029 19.474246 17.349476 43.770270 5.465832 -9.460616 -11.299038 29.751447 6.970604 0.178074 0.319851 -5.510700 0.000000 0.000000 0.000000 -24.639272 -6.167423 -3.730250 15.227726 -13.456321 -2.826817 31.445013 -9.653183 0.644833 -19.529346 -25.888746 0.669174 0.771904 -0.006215 0.974831 0.000000 0.000000 0.000000 -24.639272 -6.167423 -3.730250 11.216723 -4.895005 -0.386699 3.545659 -2.400646 -0.151373 0.000000 0.000000 0.000000 0.000000 0.000000 0.000000 3.557022 -2.388383 -0.108336 1.648779 0.606480 -1.184733 -6.610729 0.500821 4.168910 0.000000 0.000000 0.000000 3.557022 -2.388383 -0.108336 0.472352 -15.517855 -10.848853 0.000000 0.000000 0.000000 -20.272655 3.135292 -36.949223 0.000022 -67.183482 0.000010 0.000000 0.000000 0.000000 3.557022 -2.388383 -0.108336 0.054216 14.638969 15.044533 0.000000 0.000000 0.000000 -11.849491 -6.498840 61.233991 -0.000007 39.468876 0.000010 0.000000 0.000000 0.000000 
-2.287480 96.470871 0.430065 0.000000 0.000000 0.000000 -24.749035 -8.094105 -4.782489 -10.051247 18.827044 19.620512 47.746314 5.134537 -8.913358 -9.167348 27.872243 7.054865 0.167937 0.438720 -7.890021 0.000000 0.000000 0.000000 -24.749035 -8.094105 -4.782489 15.291559 -12.943313 -2.420074 31.726287 -9.522244 0.689143 -20.096225 -24.407978 0.390998 0.727832 -0.005553 0.919667 0.000000 0.000000 0.000000 -24.749035 -8.094105 -4.782489 11.228848 -4.932613 -0.245800 3.545657 -2.400648 -0.151372 0.000000 0.000000 0.000000 0.000000 0.000000 0.000000 3.557023 -2.388381 -0.108336 1.686211 0.561394 -1.092499 -6.453753 0.145327 4.405431 0.000000 0.000000 0.000000 3.557023 -2.388381 -0.108336 0.474331 -15.543178 -10.838170 0.000000 0.000000 0.000000 -20.339593 3.221957 -37.004394 0.000062 -67.196016 0.000054 0.000000 0.000000 0.000000 3.557023 -2.388381 -0.108336 0.058780 14.667365 14.999020 0.000000 0.000000 0.000000 -11.779103 -6.388078 61.227236 -0.000013 39.443414 0.000023 0.000000 0.000000 0.000000 
-2.739047 96.374245 0.821867 0.000000 0.000000 0.000000 -24.894124 -10.066732 -5.802224 -11.921929 17.440849 20.591810 49.606475 4.337042 -8.058188 -6.305141 20.526178 4.481907 -2.990771 0.609878 -6.598034 0.000000 0.000000 0.000000 -24.894124 -10.066732 -5.802224 15.309678 -12.502735 -2.263813 31.909408 -9.286872 0.693117 -20.447151 -22.886857 0.274819 0.739702 -0.005737 0.934540 0.000000 0.000000 0.000000 -24.894124 -10.066732 -5.802224 11.236150 -4.955811 -0.161208 3.545658 -2.400645 -0.151372 0.000000 0.000000 0.000000 0.000000 0.000000 0.000000 3.557020 -2.388382 -0.108336 1.688884 0.501056 -0.991730 -6.384991 -0.285515 4.706243 0.000000 0.000000 0.000000 3.557020 -2.388382 -0.108336 0.465634 -15.590308 -10.898831 0.000000 0.000000 0.000000 -20.505432 3.391262 -37.049439 0.000016 -67.235645 -0.000001 0.000000 0.000000 0.000000 3.557020 -2.388382 -0.108336 0.066777 14.690992 14.928167 0.000000 0.000000 0.000000 -11.757136 -6.341263 61.272377 0.000031 39.391135 -0.000046 0.000000 0.000000 0.000000 
-2.940636 96.349953 1.204062 0.000000 0.000000 0.000000 -25.078358 -12.087966 -6.785862 -12.243162 15.392443 19.987172 49.058237 3.633954 -6.970532 -3.945393 13.013564 0.690435 -6.358753 0.475603 -3.099165 0.000000 0.000000 0.000000 -25.078358 -12.087966 -6.785862 15.284865 -12.062375 -2.305453 31.950242 -8.912180 0.585395 -20.554064 -21.464027 0.319740 0.829436 -0.007174 1.046805 0.000000 0.000000 0.000000 -25.078358 -12.087966 -6.785862 11.237987 -4.961405 -0.140061 3.545658 -2.400646 -0.151372 0.000000 0.000000 0.000000 0.000000 0.000000 0.000000 3.557021 -2.388379 -0.108336 1.666316 0.447327 -0.916925 -6.377653 -0.615321 4.977464 0.000000 0.000000 0.000000 3.557021 -2.388379 -0.108336 0.456225 -15.649958 -10.964350 0.000000 0.000000 0.000000 -20.661937 3.569053 -37.076972 0.000039 -67.283504 0.000043 0.000000 0.000000 0.000000 3.557021 -2.388379 -0.108336 0.071796 14.718207 14.879839 0.000000 0.000000 0.000000 -11.715996 -6.279149 61.286495 -0.000016 39.362250 0.000018 0.000000 0.000000 0.000000 
-2.907861 96.377663 1.587585 0.000000 0.000000 0.000000 -25.304736 -14.150134 -7.753379 -12.184594 12.726762 18.373573 48.558834 3.283239 -5.710928 -5.679075 8.250554 -2.743361 -1.775885 -0.024061 0.251851 0.000000 0.000000 0.000000 -25.304736 -14.150134 -7.753379 15.186804 -11.627906 -2.529869 31.909394 -8.427839 0.380946 -20.457704 -20.104271 0.520389 0.961147 -0.009628 1.211613 0.000000 0.000000 0.000000 -25.304736 -14.150134 -7.753379 11.235852 -4.951584 -0.164472 3.545657 -2.400649 -0.151372 0.000000 0.000000 0.000000 0.000000 0.000000 0.000000 3.557022 -2.388380 -0.108336 1.641058 0.417386 -0.890168 -6.382924 -0.720074 5.111568 0.000000 0.000000 0.000000 3.557022 -2.388380 -0.108336 0.461046 -15.712835 -10.937713 0.000000 0.000000 0.000000 -20.665919 3.663062 -37.087415 -0.000013 -67.314513 -0.000018 0.000000 0.000000 0.000000 3.557022 -2.388380 -0.108336 0.069193 14.760000 14.887871 0.000000 0.000000 0.000000 -11.599020 -6.137999 61.204840 0.000010 39.395363 -0.000015 0.000000 0.000000 0.000000 
-2.686687 96.441330 1.987349 0.000000 0.000000 0.000000 -25.575963 -16.244259 -8.718461 -11.347030 9.999295 16.072361 46.717186 3.378086 -4.185818 -7.251026 5.962131 -5.669188 2.925667 -0.065113 2.161295 0.000000 0.000000 0.000000 -25.575963 -16.244259 -8.718461 15.016045 -11.399869 -3.035718 31.810916 -7.161460 0.276450 -20.321630 -19.156582 0.515930 1.083324 -0.012232 1.364415 0.000000 0.000000 0.000000 -25.575963 -16.244259 -8.718461 11.230784 -4.930948 -0.222742 3.545659 -2.400644 -0.151373 0.000000 0.000000 0.000000 0.000000 0.000000 0.000000 3.557023 -2.388383 -0.108336 1.620887 0.414111 -0.908461 -6.409938 -0.591718 5.068694 0.000000 0.000000 0.000000 3.557023 -2.388383 -0.108336 0.483367 -15.763709 -10.798691 0.000000 0.000000 0.000000 -20.490897 3.638689 -37.088498 0.000096 -67.315667 0.000099 0.000000 0.000000 0.000000 3.557023 -2.388383 -0.108336 0.060072 14.786598 14.950567 0.000000 0.000000 0.000000 -11.436756 -5.927549 61.048723 -0.000012 39.470748 0.000010 0.000000 0.000000 0.000000 
-2.326305 96.515656 2.410307 0.000000 0.000000 0.000000 -25.892634 -18.349961 -9.704108 -9.584864 7.888844 13.378297 44.628664 5.247651 -2.812175 -8.899286 4.403740 -8.059326 3.738913 -0.000000 -0.000002 0.000000 0.000000 0.000000 -25.892634 -18.349961 -9.704108 14.752787 -11.482392 -3.832394 31.695179 -4.523020 0.403929 -20.272847 -19.036854 -0.007583 1.186515 -0.014646 1.493434 0.000000 0.000000 0.000000 -25.892634 -18.349961 -9.704108 11.224876 -4.913460 -0.291340 3.545658 -2.400649 -0.151372 0.000000 0.000000 0.000000 0.000000 0.000000 0.000000 3.557023 -2.388382 -0.108336 1.593886 0.428264 -0.954506 -6.507534 -0.319883 4.907338 0.000000 0.000000 0.000000 3.557023 -2.388382 -0.108336 0.509521 -15.781328 -10.633827 0.000000 0.000000 0.000000 -20.261602 3.536834 -37.087606 0.000100 -67.292321 0.000093 0.000000 0.000000 0.000000 3.557023 -2.388382 -0.108336 0.049112 14.759042 15.041489 0.000000 0.000000 0.000000 -11.308647 -5.714331 60.891601 0.000005 39.539671 -0.000000 0.000000 0.000000 0.000000 
-1.844078 96.580994 2.895973 0.000000 0.000000 0.000000 -26.256724 -20.459483 -10.735679 -7.734596 6.566960 9.841011 42.082718 0.565775 -1.355048 -10.082274 8.192283 -9.107234 0.942701 -0.000004 -0.000001 0.000000 0.000000 0.000000 -26.256724 -20.459483 -10.735679 14.412053 -11.666726 -4.781742 31.584400 -1.685651 0.568879 -20.151602 -18.944230 -0.482185 1.294751 -0.017411 1.628784 0.000000 0.000000 0.000000 -26.256724 -20.459483 -10.735679 11.220093 -4.900032 -0.347251 3.545658 -2.400645 -0.151373 0.000000 0.000000 0.000000 0.000000 0.000000 0.000000 3.557021 -2.388382 -0.108335 1.548918 0.441796 -1.003390 -6.684184 -0.057520 4.746192 0.000000 0.000000 0.000000 3.557021 -2.388382 -0.108335 0.526556 -15.770818 -10.525164 0.000000 0.000000 0.000000 -20.143129 3.464778 -37.119814 0.000029 -67.264038 0.000029 0.000000 0.000000 0.000000 3.557021 -2.388382 -0.108335 0.037334 14.697893 15.149226 0.000000 0.000000 0.000000 -11.238313 -5.563814 60.757763 0.000013 39.603551 0.000001 0.000000 0.000000 0.000000 
-1.267391 96.660744 3.446497 0.000000 0.000000 0.000000 -26.673979 -22.582202 -11.801600 -6.438175 5.720141 6.100462 39.968092 -2.347094 0.525439 -9.993938 8.182051 -10.223043 -0.783321 -0.000005 0.000001 0.000000 0.000000 0.000000 -26.673979 -22.582202 -11.801600 14.051694 -11.725955 -5.634953 31.403745 0.994376 0.511904 -19.879167 -18.905911 -0.731800 1.417880 -0.020876 1.782645 0.000000 0.000000 0.000000 -26.673979 -22.582202 -11.801600 11.214820 -4.881858 -0.408770 3.545657 -2.400648 -0.151373 0.000000 0.000000 0.000000 0.000000 0.000000 0.000000 3.557022 -2.388382 -0.108336 1.492977 0.433653 -1.023809 -6.897607 0.045822 4.674551 0.000000 0.000000 0.000000 3.557022 -2.388382 -0.108336 0.540402 -15.777913 -10.438710 0.000000 0.000000 0.000000 -20.185898 3.530670 -37.246087 0.000049 -67.250268 0.000044 0.000000 0.000000 0.000000 3.557022 -2.388382 -0.108336 0.019928 14.683102 15.292051 0.000000 0.000000 0.000000 -11.168589 -5.508629 60.593333 0.000013 39.727553 -0.000012 0.000000 0.000000 0.000000 
